# xmcd
#
# Track frame offsets:
#	150
#	17006
#	32517
#	49980
#	68731
#	85308
#	95219
#	117237
#	131330
#	147262
#	165123
#	179464
#	198367
#	211353
#	229119
#	250509
#
# Disc length: 3606 seconds
#
# Revision: 0
# Processed by: cddbd v1.5.2PL0 Copyright (c) Steve Scherf et al.
# Submitted via: dBpowerAMP V4.0
#
DISCID=d40e1410
DTITLE=Various Artist - My Country Vol 2
DYEAR=2010
DGENRE=
TTITLE0=Blake Shelton - Hillbilly bone (feat Trace Adkins)
TTITLE1=Kenny Chesney - Summertime
TTITLE2=Darius Rucker - Alrigh 
TTITLE3=Faith Hill - Breathe
TTITLE4=Brooks and Dunn - You can't take the honky tonk out of the girl
TTITLE5=Tracy Byrd - Drinkin' bone 
TTITLE6=Brad Paisley - Alcohol
TTITLE7=Tim McGraw  - It's a business doing pleasure with you
TTITLE8=Uncle Kracker - Smile
TTITLE9=Zac Brown Band - Chicken fried
TTITLE10=Josh Thompson - Beer on the able
TTITLE11=Randy Travis - Baptism 
TTITLE12=Easton Corbin - A little more country than that
TTITLE13=Carrie Underwood - Cowboy cassanova 
TTITLE14=Kellie Pickler - Didn't you know how much I loved you 
TTITLE15=John Michael Montgomery - I swear 
EXTD=
EXTT0=
EXTT1=
EXTT2=
EXTT3=
EXTT4=
EXTT5=
EXTT6=
EXTT7=
EXTT8=
EXTT9=
EXTT10=
EXTT11=
EXTT12=
EXTT13=
EXTT14=
EXTT15=
PLAYORDER=
